<svg width="360" height="592" viewBox="0 0 360 592" fill="none" xmlns="http://www.w3.org/2000/svg">
<mask id="mask0_1090_3869" style="mask-type:alpha" maskUnits="userSpaceOnUse" x="66" y="25" width="228" height="262">
<path d="M288.466 93.0693L179.999 30.4456L71.5317 93.0693V218.317L179.999 280.94L288.466 218.317V93.0693Z" stroke="url(#paint0_linear_1090_3869)" stroke-width="9.16043"/>
</mask>
<g mask="url(#mask0_1090_3869)">
<path d="M196.173 34.8254C186.164 29.047 173.834 29.047 163.825 34.8254L83.4116 81.2522C73.4032 87.0306 67.2377 97.7094 67.2377 109.266V202.12C67.2377 213.676 73.4032 224.355 83.4116 230.134L163.825 276.561C173.834 282.339 186.164 282.339 196.173 276.561L276.586 230.134C286.595 224.355 292.76 213.676 292.76 202.12V109.266C292.76 97.7094 286.595 87.0306 276.586 81.2522L196.173 34.8254Z" stroke="url(#paint1_linear_1090_3869)" stroke-width="0.572527"/>
</g>
<g opacity="0.8">
<mask id="mask1_1090_3869" style="mask-type:alpha" maskUnits="userSpaceOnUse" x="41" y="-5" width="278" height="322">
<path d="M314.25 78.1836L180 0.67421L45.7499 78.1836V233.202L180 310.712L314.25 233.202V78.1836Z" stroke="url(#paint2_linear_1090_3869)" stroke-width="9.16043"/>
</mask>
<g mask="url(#mask1_1090_3869)">
<path d="M196.174 5.05397C186.166 -0.7244 173.835 -0.72439 163.826 5.05398L57.6298 66.3665C47.6214 72.1449 41.456 82.8237 41.456 94.3805V217.005C41.456 228.562 47.6214 239.241 57.6299 245.019L163.826 306.332C173.835 312.11 186.166 312.11 196.174 306.332L302.37 245.019C312.379 239.241 318.544 228.562 318.544 217.005V94.3804C318.544 82.8237 312.379 72.1449 302.37 66.3665L196.174 5.05397Z" stroke="url(#paint3_linear_1090_3869)" stroke-width="0.572527"/>
</g>
</g>
<g opacity="0.6">
<mask id="mask2_1090_3869" style="mask-type:alpha" maskUnits="userSpaceOnUse" x="11" y="-39" width="338" height="389">
<path d="M343.503 61.294L179.999 -33.1049L16.4956 61.294V250.092L179.999 344.491L343.503 250.092V61.294Z" stroke="url(#paint4_linear_1090_3869)" stroke-width="9.16043"/>
</mask>
<g mask="url(#mask2_1090_3869)">
<path d="M196.173 -28.7251C186.165 -34.5035 173.834 -34.5035 163.825 -28.7251L28.3755 49.4769C18.3671 55.2553 12.2017 65.9342 12.2017 77.4909V233.895C12.2017 245.452 18.3671 256.131 28.3755 261.909L163.825 340.111C173.834 345.889 186.165 345.889 196.173 340.111L331.623 261.909C341.632 256.131 347.797 245.452 347.797 233.895V77.4909C347.797 65.9342 341.632 55.2553 331.623 49.4769L196.173 -28.7251Z" stroke="url(#paint5_linear_1090_3869)" stroke-width="0.572527"/>
</g>
</g>
<g opacity="0.4">
<mask id="mask3_1090_3869" style="mask-type:alpha" maskUnits="userSpaceOnUse" x="-26" y="-82" width="412" height="476">
<path d="M381.186 39.538L180 -76.6169L-21.1862 39.538V271.848L180 388.003L381.186 271.848V39.538Z" stroke="url(#paint6_linear_1090_3869)" stroke-width="9.16043"/>
</mask>
<g mask="url(#mask3_1090_3869)">
<path d="M196.174 -72.2372C186.165 -78.0155 173.835 -78.0155 163.826 -72.2372L-9.3063 27.7209C-19.3148 33.4993 -25.4802 44.1781 -25.4802 55.7349V255.651C-25.4802 267.208 -19.3148 277.887 -9.3063 283.665L163.826 383.623C173.835 389.401 186.165 389.401 196.174 383.623L369.306 283.665C379.315 277.887 385.48 267.208 385.48 255.651V55.7349C385.48 44.1781 379.315 33.4993 369.306 27.7209L196.174 -72.2372Z" stroke="url(#paint7_linear_1090_3869)" stroke-width="0.572527"/>
</g>
</g>
<g opacity="0.2">
<mask id="mask4_1090_3869" style="mask-type:alpha" maskUnits="userSpaceOnUse" x="-75" y="-139" width="510" height="589">
<path d="M429.776 11.4842L179.999 -132.725L-69.7781 11.4842V299.902L179.999 444.11L429.776 299.902V11.4842Z" stroke="url(#paint8_linear_1090_3869)" stroke-width="9.16043"/>
</mask>
<g mask="url(#mask4_1090_3869)">
<path d="M196.173 -128.345C186.164 -134.123 173.833 -134.123 163.825 -128.345L-57.8982 -0.332947C-67.9066 5.44542 -74.0721 16.1243 -74.0721 27.681V283.705C-74.0721 295.262 -67.9066 305.94 -57.8982 311.719L163.825 439.731C173.833 445.509 186.164 445.509 196.173 439.731L417.896 311.719C427.904 305.94 434.07 295.262 434.07 283.705V27.6811C434.07 16.1243 427.904 5.44543 417.896 -0.332947L196.173 -128.345Z" stroke="url(#paint9_linear_1090_3869)" stroke-width="0.572527"/>
</g>
</g>
<g opacity="0.1">
<mask id="mask5_1090_3869" style="mask-type:alpha" maskUnits="userSpaceOnUse" x="-131" y="-203" width="622" height="718">
<path d="M485.804 -20.8636L180 -197.42L-125.805 -20.8636V332.249L180 508.806L485.804 332.249V-20.8636Z" stroke="url(#paint10_linear_1090_3869)" stroke-width="9.16043"/>
</mask>
<g mask="url(#mask5_1090_3869)">
<path d="M196.173 -193.04C186.165 -198.819 173.834 -198.819 163.826 -193.04L-113.925 -32.6807C-123.934 -26.9023 -130.099 -16.2234 -130.099 -4.66672V316.053C-130.099 327.609 -123.934 338.288 -113.925 344.067L163.826 504.426C173.834 510.205 186.165 510.205 196.173 504.426L473.924 344.067C483.933 338.288 490.098 327.609 490.098 316.053V-4.66667C490.098 -16.2234 483.933 -26.9023 473.924 -32.6807L196.173 -193.04Z" stroke="url(#paint11_linear_1090_3869)" stroke-width="0.572527"/>
</g>
</g>
<g opacity="0.05">
<mask id="mask6_1090_3869" style="mask-type:alpha" maskUnits="userSpaceOnUse" x="-198" y="-280" width="756" height="872">
<path d="M552.74 -59.5091L179.999 -274.711L-192.741 -59.5091V370.895L179.999 586.097L552.74 370.895V-59.5091Z" stroke="url(#paint12_linear_1090_3869)" stroke-width="9.16043"/>
</mask>
<g mask="url(#mask6_1090_3869)">
<path d="M196.173 -270.331C186.165 -276.11 173.834 -276.11 163.826 -270.331L-180.862 -71.3263C-190.87 -65.5479 -197.035 -54.869 -197.035 -43.3123V354.698C-197.035 366.255 -190.87 376.934 -180.862 382.712L163.826 581.717C173.834 587.496 186.165 587.496 196.173 581.717L540.86 382.712C550.869 376.934 557.034 366.255 557.034 354.698V-43.3123C557.034 -54.869 550.869 -65.5479 540.86 -71.3263L196.173 -270.331Z" stroke="url(#paint13_linear_1090_3869)" stroke-width="0.572527"/>
</g>
</g>
<g opacity="0.66">
<path d="M196.662 148.522L196.629 148.838H196.947H242.73C243.458 148.838 244.158 149.12 244.682 149.625C245.801 150.703 245.834 152.484 244.757 153.603L159.892 241.708C159.29 242.333 158.433 242.645 157.57 242.554C156.025 242.39 154.904 241.005 155.068 239.46L162.732 167.003L162.765 166.686H162.447H117.829C117.101 166.686 116.402 166.404 115.877 165.899L115.679 166.105L115.877 165.899C114.758 164.821 114.725 163.04 115.803 161.921L199.207 75.3209C199.808 74.6971 200.662 74.3848 201.524 74.4742C203.069 74.6347 204.192 76.0177 204.032 77.5631L196.662 148.522Z" stroke="url(#paint14_linear_1090_3869)" stroke-width="0.572527"/>
<g filter="url(#filter0_f_1090_3869)">
<path d="M196.662 148.522L196.629 148.838H196.947H242.73C243.458 148.838 244.158 149.12 244.682 149.625C245.801 150.703 245.834 152.484 244.757 153.603L159.892 241.708C159.29 242.333 158.433 242.645 157.57 242.554C156.025 242.39 154.904 241.005 155.068 239.46L162.732 167.003L162.765 166.686H162.447H117.829C117.101 166.686 116.402 166.404 115.877 165.899L115.679 166.105L115.877 165.899C114.758 164.821 114.725 163.04 115.803 161.921L199.207 75.3209C199.808 74.6971 200.662 74.3848 201.524 74.4742C203.069 74.6347 204.192 76.0177 204.032 77.5631L196.662 148.522Z" stroke="url(#paint15_linear_1090_3869)" stroke-width="0.572527"/>
</g>
<g filter="url(#filter1_f_1090_3869)">
<path d="M196.662 148.522L196.629 148.838H196.947H242.73C243.458 148.838 244.158 149.12 244.682 149.625C245.801 150.703 245.834 152.484 244.757 153.603L159.892 241.708C159.29 242.333 158.433 242.645 157.57 242.554C156.025 242.39 154.904 241.005 155.068 239.46L162.732 167.003L162.765 166.686H162.447H117.829C117.101 166.686 116.402 166.404 115.877 165.899L115.679 166.105L115.877 165.899C114.758 164.821 114.725 163.04 115.803 161.921L199.207 75.3209C199.808 74.6971 200.662 74.3848 201.524 74.4742C203.069 74.6347 204.192 76.0177 204.032 77.5631L196.662 148.522Z" stroke="url(#paint16_linear_1090_3869)" stroke-width="0.572527"/>
</g>
<g filter="url(#filter2_f_1090_3869)">
<path d="M196.662 148.522L196.629 148.838H196.947H242.73C243.458 148.838 244.158 149.12 244.682 149.625C245.801 150.703 245.834 152.484 244.757 153.603L159.892 241.708C159.29 242.333 158.433 242.645 157.57 242.554C156.025 242.39 154.904 241.005 155.068 239.46L162.732 167.003L162.765 166.686H162.447H117.829C117.101 166.686 116.402 166.404 115.877 165.899L115.679 166.105L115.877 165.899C114.758 164.821 114.725 163.04 115.803 161.921L199.207 75.3209C199.808 74.6971 200.662 74.3848 201.524 74.4742C203.069 74.6347 204.192 76.0177 204.032 77.5631L196.662 148.522Z" stroke="url(#paint17_linear_1090_3869)" stroke-width="0.572527"/>
</g>
</g>
<defs>
<filter id="filter0_f_1090_3869" x="103.851" y="63.2949" width="152.857" height="190.439" filterUnits="userSpaceOnUse" color-interpolation-filters="sRGB">
<feFlood flood-opacity="0" result="BackgroundImageFix"/>
<feBlend mode="normal" in="SourceGraphic" in2="BackgroundImageFix" result="shape"/>
<feGaussianBlur stdDeviation="5.43901" result="effect1_foregroundBlur_1090_3869"/>
</filter>
<filter id="filter1_f_1090_3869" x="103.851" y="63.2949" width="152.857" height="190.439" filterUnits="userSpaceOnUse" color-interpolation-filters="sRGB">
<feFlood flood-opacity="0" result="BackgroundImageFix"/>
<feBlend mode="normal" in="SourceGraphic" in2="BackgroundImageFix" result="shape"/>
<feGaussianBlur stdDeviation="5.43901" result="effect1_foregroundBlur_1090_3869"/>
</filter>
<filter id="filter2_f_1090_3869" x="103.851" y="63.2949" width="152.857" height="190.439" filterUnits="userSpaceOnUse" color-interpolation-filters="sRGB">
<feFlood flood-opacity="0" result="BackgroundImageFix"/>
<feBlend mode="normal" in="SourceGraphic" in2="BackgroundImageFix" result="shape"/>
<feGaussianBlur stdDeviation="5.43901" result="effect1_foregroundBlur_1090_3869"/>
</filter>
<linearGradient id="paint0_linear_1090_3869" x1="246.341" y1="37.3946" x2="102.279" y2="282.794" gradientUnits="userSpaceOnUse">
<stop stop-color="#46C5FF"/>
<stop offset="0.216292" stop-color="#2F82FF" stop-opacity="0.120619"/>
<stop offset="0.484375" stop-color="#2C79FF" stop-opacity="0"/>
<stop offset="0.70849" stop-color="#3F70FE" stop-opacity="0.208005"/>
<stop offset="1" stop-color="#8650F9"/>
</linearGradient>
<linearGradient id="paint1_linear_1090_3869" x1="121.387" y1="50.2765" x2="247.199" y2="256.816" gradientUnits="userSpaceOnUse">
<stop stop-color="#46C5FF"/>
<stop offset="0.484375" stop-color="#2C79FF"/>
<stop offset="1" stop-color="#8650F9"/>
</linearGradient>
<linearGradient id="paint2_linear_1090_3869" x1="261.472" y1="10.4143" x2="84.5538" y2="311.782" gradientUnits="userSpaceOnUse">
<stop stop-color="#46C5FF"/>
<stop offset="0.216292" stop-color="#2F82FF" stop-opacity="0.120619"/>
<stop offset="0.484375" stop-color="#2C79FF" stop-opacity="0"/>
<stop offset="0.70849" stop-color="#3F70FE" stop-opacity="0.208005"/>
<stop offset="1" stop-color="#8650F9"/>
</linearGradient>
<linearGradient id="paint3_linear_1090_3869" x1="108.02" y1="26.2341" x2="262.527" y2="279.879" gradientUnits="userSpaceOnUse">
<stop stop-color="#46C5FF"/>
<stop offset="0.484375" stop-color="#2C79FF"/>
<stop offset="1" stop-color="#8650F9"/>
</linearGradient>
<linearGradient id="paint4_linear_1090_3869" x1="278.639" y1="-20.198" x2="64.4412" y2="344.672" gradientUnits="userSpaceOnUse">
<stop stop-color="#46C5FF"/>
<stop offset="0.216292" stop-color="#2F82FF" stop-opacity="0.120619"/>
<stop offset="0.484375" stop-color="#2C79FF" stop-opacity="0"/>
<stop offset="0.70849" stop-color="#3F70FE" stop-opacity="0.208005"/>
<stop offset="1" stop-color="#8650F9"/>
</linearGradient>
<linearGradient id="paint5_linear_1090_3869" x1="92.8519" y1="-1.04476" x2="279.916" y2="306.046" gradientUnits="userSpaceOnUse">
<stop stop-color="#46C5FF"/>
<stop offset="0.484375" stop-color="#2C79FF"/>
<stop offset="1" stop-color="#8650F9"/>
</linearGradient>
<linearGradient id="paint6_linear_1090_3869" x1="300.753" y1="-59.6308" x2="38.535" y2="387.039" gradientUnits="userSpaceOnUse">
<stop stop-color="#46C5FF"/>
<stop offset="0.216292" stop-color="#2F82FF" stop-opacity="0.120619"/>
<stop offset="0.484375" stop-color="#2C79FF" stop-opacity="0"/>
<stop offset="0.70849" stop-color="#3F70FE" stop-opacity="0.208005"/>
<stop offset="1" stop-color="#8650F9"/>
</linearGradient>
<linearGradient id="paint7_linear_1090_3869" x1="73.3151" y1="-36.1836" x2="302.316" y2="339.754" gradientUnits="userSpaceOnUse">
<stop stop-color="#46C5FF"/>
<stop offset="0.484375" stop-color="#2C79FF"/>
<stop offset="1" stop-color="#8650F9"/>
</linearGradient>
<linearGradient id="paint8_linear_1090_3869" x1="329.267" y1="-110.478" x2="5.12759" y2="441.67" gradientUnits="userSpaceOnUse">
<stop stop-color="#46C5FF"/>
<stop offset="0.216292" stop-color="#2F82FF" stop-opacity="0.120619"/>
<stop offset="0.484375" stop-color="#2C79FF" stop-opacity="0"/>
<stop offset="0.70849" stop-color="#3F70FE" stop-opacity="0.208005"/>
<stop offset="1" stop-color="#8650F9"/>
</linearGradient>
<linearGradient id="paint9_linear_1090_3869" x1="48.1208" y1="-81.4942" x2="331.2" y2="383.219" gradientUnits="userSpaceOnUse">
<stop stop-color="#46C5FF"/>
<stop offset="0.484375" stop-color="#2C79FF"/>
<stop offset="1" stop-color="#8650F9"/>
</linearGradient>
<linearGradient id="paint10_linear_1090_3869" x1="362.148" y1="-169.109" x2="-33.391" y2="504.663" gradientUnits="userSpaceOnUse">
<stop stop-color="#46C5FF"/>
<stop offset="0.216292" stop-color="#2F82FF" stop-opacity="0.120619"/>
<stop offset="0.484375" stop-color="#2C79FF" stop-opacity="0"/>
<stop offset="0.70849" stop-color="#3F70FE" stop-opacity="0.208005"/>
<stop offset="1" stop-color="#8650F9"/>
</linearGradient>
<linearGradient id="paint11_linear_1090_3869" x1="19.0724" y1="-133.74" x2="364.506" y2="433.336" gradientUnits="userSpaceOnUse">
<stop stop-color="#46C5FF"/>
<stop offset="0.484375" stop-color="#2C79FF"/>
<stop offset="1" stop-color="#8650F9"/>
</linearGradient>
<linearGradient id="paint12_linear_1090_3869" x1="401.429" y1="-239.154" x2="-79.4098" y2="579.92" gradientUnits="userSpaceOnUse">
<stop stop-color="#46C5FF"/>
<stop offset="0.216292" stop-color="#2F82FF" stop-opacity="0.120619"/>
<stop offset="0.484375" stop-color="#2C79FF" stop-opacity="0"/>
<stop offset="0.70849" stop-color="#3F70FE" stop-opacity="0.208005"/>
<stop offset="1" stop-color="#8650F9"/>
</linearGradient>
<linearGradient id="paint13_linear_1090_3869" x1="-15.6324" y1="-196.158" x2="404.295" y2="493.212" gradientUnits="userSpaceOnUse">
<stop stop-color="#46C5FF"/>
<stop offset="0.484375" stop-color="#2C79FF"/>
<stop offset="1" stop-color="#8650F9"/>
</linearGradient>
<linearGradient id="paint14_linear_1090_3869" x1="209.713" y1="90.4031" x2="120.879" y2="203.744" gradientUnits="userSpaceOnUse">
<stop stop-color="#46C5FF"/>
<stop offset="0.484375" stop-color="#2C79FF"/>
<stop offset="1" stop-color="#8650F9"/>
</linearGradient>
<linearGradient id="paint15_linear_1090_3869" x1="209.713" y1="90.4031" x2="120.879" y2="203.744" gradientUnits="userSpaceOnUse">
<stop stop-color="#46C5FF"/>
<stop offset="0.484375" stop-color="#2C79FF"/>
<stop offset="1" stop-color="#8650F9"/>
</linearGradient>
<linearGradient id="paint16_linear_1090_3869" x1="209.713" y1="90.4031" x2="120.879" y2="203.744" gradientUnits="userSpaceOnUse">
<stop stop-color="#46C5FF"/>
<stop offset="0.484375" stop-color="#2C79FF"/>
<stop offset="1" stop-color="#8650F9"/>
</linearGradient>
<linearGradient id="paint17_linear_1090_3869" x1="209.713" y1="90.4031" x2="120.879" y2="203.744" gradientUnits="userSpaceOnUse">
<stop stop-color="#46C5FF"/>
<stop offset="0.484375" stop-color="#2C79FF"/>
<stop offset="1" stop-color="#8650F9"/>
</linearGradient>
</defs>
</svg>
