<svg width="16" height="18" viewBox="0 0 16 18" fill="none" xmlns="http://www.w3.org/2000/svg">
<path fill-rule="evenodd" clip-rule="evenodd" d="M15.8747 5.84716V12.2912H15.8669C15.8729 12.3554 15.8765 12.4203 15.8765 12.486C15.879 12.8471 15.7844 13.2023 15.6026 13.5143C15.4207 13.8263 15.1583 14.0836 14.8429 14.2594L9.20658 17.5897H9.16956C8.83768 17.8553 8.42526 18 8.00017 18C7.57508 18 7.16266 17.8553 6.83078 17.5897H6.79545L1.36775 14.3826V14.3545C0.997187 14.2027 0.680624 13.9434 0.458937 13.6099C0.237249 13.2764 0.120617 12.8842 0.124099 12.4837C0.124099 12.4609 0.126687 12.4389 0.12725 12.4165V5.58219C0.126687 5.5598 0.124099 5.53763 0.124099 5.5149C0.124099 5.49217 0.126687 5.47023 0.12725 5.44773V5.27445H0.139289C0.175998 4.94038 0.296299 4.62094 0.48908 4.34564C0.681862 4.07034 0.940908 3.84806 1.24229 3.69933H1.22069L6.79478 0.405735H6.83663C7.16757 0.143002 7.57768 0 8.00023 0C8.42277 0 8.83288 0.143002 9.16382 0.405735H9.20714L14.8593 3.74535L14.8751 3.75458L15.0473 3.85652V3.86664C15.3057 4.0555 15.5156 4.30298 15.6597 4.58873C15.8039 4.87448 15.8781 5.19036 15.8765 5.5104C15.8758 5.62327 15.866 5.7359 15.847 5.84716H15.8747Z" fill="#FE9C11"/>
<path d="M13.6145 7.69324C13.6123 7.70258 13.6151 7.7117 13.6127 7.72115L11.8775 12.9976C11.8566 13.0802 11.8196 13.1578 11.7687 13.2261C11.7177 13.2943 11.6538 13.3518 11.5805 13.3953C11.5073 13.4388 11.4262 13.4674 11.3419 13.4794C11.2576 13.4915 11.1717 13.4868 11.0892 13.4656H4.91116C4.82868 13.4868 4.74283 13.4915 4.65853 13.4795C4.57422 13.4674 4.49313 13.4388 4.4199 13.3954C4.34666 13.3519 4.28274 13.2944 4.23179 13.2262C4.18083 13.1579 4.14386 13.0803 4.12298 12.9977L2.38774 7.72104C2.38527 7.7117 2.38808 7.70258 2.38594 7.69324C2.37792 7.6461 2.37498 7.59823 2.37717 7.55046C2.37538 7.50627 2.37809 7.46201 2.38527 7.41837C2.38763 7.40689 2.38437 7.39575 2.38729 7.38439C2.39649 7.36228 2.40693 7.34072 2.41857 7.3198C2.43542 7.27046 2.4582 7.22334 2.48642 7.17949C2.53638 7.11376 2.59505 7.05512 2.66082 7.0052C2.69407 6.98424 2.72921 6.96646 2.7658 6.9521C2.79165 6.93652 2.81862 6.92287 2.84647 6.91125C2.86088 6.90731 2.87472 6.91148 2.88912 6.90855C2.92927 6.90194 2.96997 6.89934 3.01064 6.90079C3.05571 6.89873 3.10088 6.90164 3.14532 6.90945C3.15848 6.91215 3.1712 6.90833 3.18436 6.91193L5.89692 7.65803L7.5454 4.79965C7.55238 4.78738 7.56442 4.78074 7.57207 4.76916C7.62513 4.70065 7.68647 4.63897 7.75469 4.58553C7.7656 4.57821 7.7719 4.56662 7.78338 4.55999C7.80784 4.54983 7.83295 4.5413 7.85854 4.53445C7.89945 4.5154 7.94231 4.50083 7.98636 4.49101C8.11099 4.46423 8.24098 4.47913 8.35631 4.53343C8.38267 4.54044 8.40853 4.5492 8.43372 4.55965C8.44576 4.56674 8.45229 4.57878 8.46377 4.58643C8.49807 4.6113 8.52981 4.63953 8.55851 4.6707C8.59124 4.70114 8.62073 4.73488 8.64649 4.77141C8.6537 4.78243 8.66506 4.78873 8.6717 4.80032L10.1637 7.64149L12.816 6.91193C12.8291 6.90833 12.8418 6.91215 12.8549 6.90945C12.9399 6.8982 13.0261 6.8979 13.1113 6.90855C13.1256 6.91136 13.1395 6.90731 13.1539 6.91125C13.1818 6.92283 13.2088 6.93648 13.2346 6.9521C13.3455 7.00314 13.4417 7.08145 13.5141 7.17972C13.542 7.22339 13.5647 7.27022 13.5816 7.31924C13.5933 7.34035 13.6038 7.3621 13.6131 7.38439C13.6161 7.39597 13.6128 7.40723 13.6151 7.41882C13.6222 7.46224 13.6249 7.50627 13.6232 7.55024C13.6254 7.59808 13.6224 7.64602 13.6145 7.69324ZM10.01 9.06696C9.99343 9.07158 9.97734 9.06696 9.96092 9.07023C9.87662 9.08087 9.79127 9.08008 9.70719 9.06786C9.54698 9.02482 9.40646 8.92796 9.30922 8.79355C9.30067 8.78061 9.28728 8.77318 9.27951 8.75945L8.08166 6.47862L6.82935 8.65009C6.78917 8.71765 6.73701 8.77732 6.67542 8.82618L6.66136 8.84215L6.65663 8.84632C6.57935 8.94424 6.47504 9.01733 6.35662 9.05655C6.2382 9.09577 6.11088 9.09939 5.99042 9.06696L4.01789 8.52441L5.21495 12.1647H10.7854L11.9825 8.52441L10.01 9.06696Z" fill="white"/>
</svg>
